<svg version="1.1" id="Layer_1" xmlns="http://www.w3.org/2000/svg" xmlns:xlink="http://www.w3.org/1999/xlink" x="0px" y="0px"
	 width="100%" viewBox="0 0 420 420" enable-background="new 0 0 420 420" xml:space="preserve">
<path fill="#F0F0F0" opacity="1.000000" stroke="none" 
	d="
M255.000000,421.000000 
	C170.000015,421.000000 85.500023,421.000000 1.000023,421.000000 
	C1.000015,281.000031 1.000015,141.000061 1.000008,1.000060 
	C140.999954,1.000040 280.999908,1.000040 420.999908,1.000020 
	C420.999939,140.999939 420.999939,280.999878 420.999969,420.999908 
	C365.833344,421.000000 310.666656,421.000000 255.000000,421.000000 
M192.500000,36.000000 
	C140.430847,36.000000 88.361694,36.000000 36.328114,36.000000 
	C36.328114,60.058411 36.328114,83.305908 36.328114,106.595276 
	C153.339157,106.595276 270.021637,106.595276 386.671875,106.595276 
	C386.671875,82.941612 386.671875,59.694111 386.671875,36.000000 
	C322.063202,36.000000 257.781586,36.000000 192.500000,36.000000 
M131.500000,247.000000 
	C216.563034,247.000000 301.626068,247.000000 386.680176,247.000000 
	C386.680176,222.958313 386.680176,199.710953 386.680176,176.396439 
	C269.677490,176.396439 152.995041,176.396439 36.319817,176.396439 
	C36.319817,200.041687 36.319817,223.289047 36.319817,247.000000 
	C67.924881,247.000000 99.212440,247.000000 131.500000,247.000000 
M68.500000,316.000000 
	C57.751575,316.000000 47.003151,316.000000 36.338524,316.000000 
	C36.338524,340.079407 36.338524,363.327057 36.338524,386.584839 
	C153.360046,386.584839 270.042572,386.584839 386.661499,386.584839 
	C386.661499,362.920532 386.661499,339.672913 386.661499,316.000000 
	C280.715729,316.000000 175.107864,316.000000 68.500000,316.000000 
z"/>
<path fill="#D16D82" opacity="1.000000" stroke="none" 
	d="
M193.000000,36.000000 
	C257.781586,36.000000 322.063202,36.000000 386.671875,36.000000 
	C386.671875,59.694111 386.671875,82.941612 386.671875,106.595276 
	C270.021637,106.595276 153.339157,106.595276 36.328114,106.595276 
	C36.328114,83.305908 36.328114,60.058411 36.328114,36.000000 
	C88.361694,36.000000 140.430847,36.000000 193.000000,36.000000 
z"/>
<path fill="#D16D82" opacity="1.000000" stroke="none" 
	d="
M131.000000,247.000000 
	C99.212440,247.000000 67.924881,247.000000 36.319817,247.000000 
	C36.319817,223.289047 36.319817,200.041687 36.319817,176.396439 
	C152.995041,176.396439 269.677490,176.396439 386.680176,176.396439 
	C386.680176,199.710953 386.680176,222.958313 386.680176,247.000000 
	C301.626068,247.000000 216.563034,247.000000 131.000000,247.000000 
z"/>
<path fill="#D16D82" opacity="1.000000" stroke="none" 
	d="
M69.000000,316.000000 
	C175.107864,316.000000 280.715729,316.000000 386.661499,316.000000 
	C386.661499,339.672913 386.661499,362.920532 386.661499,386.584839 
	C270.042572,386.584839 153.360046,386.584839 36.338524,386.584839 
	C36.338524,363.327057 36.338524,340.079407 36.338524,316.000000 
	C47.003151,316.000000 57.751575,316.000000 69.000000,316.000000 
z"/>
</svg>